<?xml version="1.0" standalone="no"?>
<!DOCTYPE svg PUBLIC "-//W3C//DTD SVG 20010904//EN"
 "http://www.w3.org/TR/2001/REC-SVG-20010904/DTD/svg10.dtd">
<svg version="1.0" xmlns="http://www.w3.org/2000/svg"
 width="380.000000pt" height="77.000000pt" viewBox="0 0 380.000000 77.000000"
 preserveAspectRatio="xMidYMid meet">

<g transform="translate(0.000000,77.000000) scale(0.100000,-0.100000)"
fill="#000000" stroke="none">
<path d="M1538 707 c-66 -19 -113 -58 -133 -111 -38 -100 13 -174 153 -220 86
-29 112 -51 112 -96 0 -60 -59 -100 -147 -100 -97 0 -129 27 -168 137 0 1 -19
-3 -42 -9 -40 -10 -42 -12 -36 -42 9 -47 28 -80 67 -113 47 -42 97 -58 182
-57 95 0 173 36 209 98 46 78 27 193 -36 227 -13 6 -56 22 -97 35 -89 27 -112
46 -112 90 0 54 45 84 126 84 58 0 103 -24 116 -61 9 -27 13 -29 42 -23 53 11
57 22 30 80 -34 72 -161 110 -266 81z"/>
<path d="M304 696 c-3 -7 -47 -143 -98 -302 l-94 -289 127 -3 c69 -1 154 2
188 7 182 28 307 152 321 317 7 95 -12 158 -67 214 -56 58 -101 70 -262 70
-84 0 -111 -3 -115 -14z m276 -87 c57 -32 75 -71 75 -159 0 -86 -16 -128 -72
-184 -63 -63 -113 -80 -240 -84 -62 -2 -113 -1 -113 3 0 9 131 427 137 438 2
4 43 7 90 7 68 0 93 -4 123 -21z"/>
<path d="M2000 576 c-21 -65 -21 -65 -62 -68 -38 -3 -42 -6 -54 -40 l-13 -38
40 0 c21 0 39 -4 39 -8 0 -4 -22 -75 -50 -157 -27 -82 -50 -153 -50 -157 0 -4
18 -8 39 -8 l39 0 54 163 55 162 65 3 c60 3 67 5 72 27 3 13 9 30 12 39 5 14
-4 16 -59 16 l-66 0 20 57 c10 31 19 60 19 65 0 4 -18 8 -39 8 l-39 0 -22 -64z"/>
<path d="M995 511 c-57 -15 -115 -52 -144 -91 -74 -103 -59 -245 31 -300 47
-28 87 -34 153 -20 47 10 66 20 102 56 49 49 50 63 9 77 -23 8 -31 5 -51 -17
-51 -55 -130 -62 -176 -17 -16 16 -29 36 -29 44 0 9 -3 22 -6 31 -5 14 14 16
153 18 l158 3 9 46 c11 59 -17 130 -63 153 -38 20 -106 28 -146 17z m109 -92
c15 -12 26 -30 26 -45 l0 -24 -115 0 c-107 0 -115 1 -106 18 35 66 141 94 195
51z"/>
<path d="M2375 511 c-57 -15 -115 -52 -144 -91 -74 -103 -59 -245 31 -300 47
-28 87 -34 153 -20 47 10 66 20 102 56 49 49 50 63 9 77 -23 8 -31 5 -51 -17
-51 -55 -130 -62 -176 -17 -16 16 -29 36 -29 44 0 9 -3 22 -6 31 -5 14 14 16
153 18 l158 3 9 46 c11 59 -17 130 -63 153 -38 20 -106 28 -146 17z m109 -92
c15 -12 26 -30 26 -45 l0 -24 -115 0 c-107 0 -115 1 -106 18 35 66 141 94 195
51z"/>
<path d="M2905 513 c-11 -3 -35 -16 -53 -30 l-33 -25 7 26 c6 25 4 26 -34 26
l-41 0 -61 -190 c-33 -105 -63 -197 -67 -206 -5 -13 2 -15 37 -12 l43 3 49
145 c51 156 74 190 128 190 30 0 60 -22 60 -44 0 -11 -70 -237 -87 -283 -5
-11 3 -14 38 -11 l43 3 46 144 c36 110 54 150 74 168 36 31 81 30 101 -1 15
-23 14 -32 -26 -158 -23 -73 -44 -139 -47 -146 -3 -10 6 -12 38 -10 l43 3 49
155 c41 127 48 161 41 190 -18 74 -118 90 -188 29 -36 -32 -45 -35 -45 -16 0
34 -67 63 -115 50z"/>
<path d="M3560 513 c-8 -3 -28 -17 -44 -32 l-29 -26 7 28 c7 28 6 28 -35 25
l-42 -3 -64 -190 c-35 -104 -63 -195 -63 -202 0 -8 14 -13 38 -13 l38 0 48
148 c53 161 72 192 122 192 39 0 57 -20 48 -54 -6 -25 -4 -26 33 -26 38 0 40
2 52 41 24 79 -34 139 -109 112z"/>
</g>
</svg>
